<svg width="14" height="8" viewBox="0 0 14 8" fill="none" xmlns="http://www.w3.org/2000/svg">
<path d="M6.12911 0.174488L0.155357 6.44411C0.055632 6.54872 0 6.68771 0 6.83224C0 6.97677 0.055632 7.11575 0.155357 7.22036L0.162107 7.22711C0.210452 7.278 0.268644 7.31852 0.333144 7.34621C0.397644 7.37391 0.467102 7.38819 0.537295 7.38819C0.607487 7.38819 0.676946 7.37391 0.741445 7.34621C0.805945 7.31852 0.864137 7.278 0.912482 7.22711L6.53748 1.32311L12.1602 7.22711C12.2086 7.278 12.2668 7.31852 12.3313 7.34621C12.3958 7.37391 12.4652 7.38819 12.5354 7.38819C12.6056 7.38819 12.6751 7.37391 12.7396 7.34621C12.8041 7.31852 12.8623 7.278 12.9106 7.22711L12.9174 7.22036C13.0171 7.11575 13.0727 6.97677 13.0727 6.83224C13.0727 6.68771 13.0171 6.54872 12.9174 6.44411L6.94361 0.174488C6.89107 0.119349 6.82789 0.0754525 6.75788 0.0454592C6.68788 0.0154658 6.61251 0 6.53636 0C6.4602 0 6.38483 0.0154658 6.31483 0.0454592C6.24482 0.0754525 6.18164 0.119349 6.12911 0.174488Z" fill="white"/>
</svg>
