<svg width="80" height="81" viewBox="0 0 80 81" fill="none" xmlns="http://www.w3.org/2000/svg">
<path d="M17.0325 6.48169L13.5125 9.99669L18.75 15.2317L22.265 11.7167L17.03 6.48169H17.0325ZM62.97 6.48169L57.7325 11.7167L61.25 15.2317L66.485 9.99919L62.9675 6.48169H62.97ZM40 8.04169C39.175 8.05169 38.34 8.09919 37.5 8.20169C37.475 8.20169 37.45 8.19669 37.425 8.20169C27.285 9.36419 19.215 17.5567 17.8125 27.6517C16.6925 35.7767 20.0425 43.1442 25.625 47.8892C27.9085 49.838 29.4531 52.5123 30 55.4642V70.4642H35.7C36.57 71.9567 38.1575 72.9642 40 72.9642C41.8425 72.9642 43.43 71.9567 44.3 70.4642H50V60.4642H50.235V57.4942C50.235 53.8292 52.14 50.1342 55.235 47.2617C59.375 43.1167 62.5 37.2292 62.5 30.4667C62.5 18.1167 52.335 7.92669 40 8.04169ZM40 13.0417C49.6625 12.9067 57.5 20.8167 57.5 30.4667C57.5 35.7017 55.075 40.3117 51.7175 43.6667L51.7975 43.7467C48.4609 46.8235 46.3034 50.9687 45.6975 55.4667H34.7625C34.2125 51.1817 32.375 47.0342 28.9025 44.0592C24.485 40.3092 21.8525 34.6592 22.7325 28.2792C23.825 20.4042 30.215 14.0717 38.045 13.2042C38.6915 13.1141 39.3425 13.0606 39.995 13.0442L40 13.0417ZM5 30.4667V35.4667H12.5V30.4667H5ZM67.5 30.4667V35.4667H75V30.4667H67.5ZM18.75 50.7017L13.515 55.9342L17.0325 59.4517L22.2625 54.2167L18.75 50.7017ZM61.25 50.7017L57.735 54.2167L62.9675 59.4517L66.485 55.9342L61.25 50.7017ZM35 60.4667H45V65.4667H35V60.4667Z" fill="#1366CE"/>
</svg>
