<svg width="80" height="81" viewBox="0 0 80 81" fill="none" xmlns="http://www.w3.org/2000/svg">
<path d="M53.3333 43.8C63.6333 34.4334 73.3333 25.6667 73.3333 18.1334C73.3333 11.9667 68.5 7.13336 62.3333 7.13336C58.8666 7.13336 55.5 8.76669 53.3333 11.3C51.1333 8.76669 47.8 7.13336 44.3333 7.13336C38.1666 7.13336 33.3333 11.9667 33.3333 18.1334C33.3333 25.6667 43.0333 34.4334 53.3333 43.8ZM44.3333 13.8C45.8 13.8 47.3 14.5 48.2666 15.6334L53.3333 21.6L58.4 15.6334C59.3666 14.5 60.8666 13.8 62.3333 13.8C64.8 13.8 66.6666 15.6667 66.6666 18.1334C66.6666 21.8667 59.8666 28.7 53.3333 34.7667C46.8 28.7 40 21.8334 40 18.1334C40 15.6667 41.8666 13.8 44.3333 13.8ZM63.3333 53.8H56.6666C56.6666 49.8 54.1666 46.2 50.4333 44.8L29.9 37.1334H3.33331V73.8H23.3333V69L46.6666 75.4667L73.3333 67.1334V63.8C73.3333 58.2667 68.8666 53.8 63.3333 53.8ZM9.99998 67.1334V43.8H16.6666V67.1334H9.99998ZM46.5666 68.5L23.3333 62.0667V43.8H28.7L48.1 51.0334C49.2333 51.4667 50 52.5667 50 53.8C50 53.8 43.3666 53.6334 42.3333 53.3L34.4 50.6667L32.3 57L40.2333 59.6334C41.9333 60.2 43.7 60.5 45.5 60.5H63.3333C64.6333 60.5 65.8 61.2667 66.3333 62.3667L46.5666 68.5Z" fill="#1269CD"/>
</svg>
