<svg width="80" height="81" viewBox="0 0 80 81" fill="none" xmlns="http://www.w3.org/2000/svg">
<g clip-path="url(#clip0_2_258)">
<path d="M73.89 0.891675C74.2311 1.11986 74.5108 1.42852 74.7044 1.79041C74.898 2.15229 74.9995 2.55627 75 2.96667V40.4667C74.9999 40.9659 74.8503 41.4537 74.5705 41.8672C74.2906 42.2807 73.8934 42.6009 73.43 42.7867L72.5 40.4667L73.43 42.7867L73.415 42.7917L73.385 42.8067L73.27 42.8517C72.6126 43.1129 71.9509 43.363 71.285 43.6017C69.965 44.0767 68.13 44.7167 66.05 45.3517C61.97 46.6117 56.655 47.9667 52.5 47.9667C48.265 47.9667 44.76 46.5667 41.71 45.3417L41.57 45.2917C38.4 44.0167 35.7 42.9667 32.5 42.9667C29 42.9667 24.31 44.1167 20.315 45.3517C18.5263 45.9091 16.7539 46.5177 15 47.1767V77.9667C15 78.6297 14.7366 79.2656 14.2678 79.7344C13.7989 80.2033 13.163 80.4667 12.5 80.4667C11.837 80.4667 11.2011 80.2033 10.7322 79.7344C10.2634 79.2656 10 78.6297 10 77.9667V2.96667C10 2.30363 10.2634 1.66775 10.7322 1.19891C11.2011 0.730067 11.837 0.466675 12.5 0.466675C13.163 0.466675 13.7989 0.730067 14.2678 1.19891C14.7366 1.66775 15 2.30363 15 2.96667V4.37667C16.13 3.98167 17.48 3.52667 18.95 3.07667C23.03 1.82667 28.35 0.466675 32.5 0.466675C36.7 0.466675 40.12 1.85167 43.105 3.06167L43.32 3.15167C46.43 4.40667 49.14 5.46667 52.5 5.46667C56 5.46667 60.69 4.31667 64.685 3.08167C66.9616 2.37074 69.2114 1.57687 71.43 0.701675L71.525 0.666675L71.545 0.656675H71.55L73.89 0.891675ZM70 6.57167C68.9 6.96167 67.6 7.40667 66.17 7.84667C62.12 9.10667 56.81 10.4617 52.5 10.4617C48.07 10.4617 44.54 9.03167 41.485 7.79167L41.445 7.77667C38.31 6.51667 35.695 5.46667 32.5 5.46667C29.155 5.46667 24.47 6.61168 20.425 7.85668C18.6005 8.41959 16.7916 9.03148 15 9.69167V41.8567C16.1 41.4667 17.4 41.0217 18.83 40.5817C22.88 39.3167 28.19 37.9667 32.5 37.9667C36.735 37.9667 40.24 39.3667 43.29 40.5917L43.43 40.6417C46.6 41.9167 49.3 42.9667 52.5 42.9667C55.84 42.9667 60.53 41.8217 64.575 40.5767C66.3994 40.0137 68.2084 39.4018 70 38.7417V6.57667V6.57167Z" fill="#1366CE"/>
</g>
<defs>
<clipPath id="clip0_2_258">
<rect width="80" height="80" fill="white" transform="translate(0 0.466675)"/>
</clipPath>
</defs>
</svg>
