<svg width="40" height="40" viewBox="0 0 40 40" fill="none" xmlns="http://www.w3.org/2000/svg">
<path d="M37.7778 40H2.22222C1.63286 40 1.06762 39.7659 0.650873 39.3491C0.234127 38.9323 0 38.3671 0 37.7778V21.5556C4.52344e-05 21.2391 0.0676725 20.9263 0.198357 20.6381C0.329041 20.3499 0.519769 20.093 0.757778 19.8844L4.44444 16.6667V2.22222C4.44444 1.63286 4.67857 1.06762 5.09532 0.650873C5.51207 0.234127 6.0773 0 6.66667 0H37.7778C38.3671 0 38.9323 0.234127 39.3491 0.650873C39.7659 1.06762 40 1.63286 40 2.22222V37.7778C40 38.3671 39.7659 38.9323 39.3491 39.3491C38.9323 39.7659 38.3671 40 37.7778 40ZM13.3333 9.62C13.8713 9.62062 14.3909 9.81645 14.7956 10.1711L25.9067 19.8933C26.144 20.1007 26.3344 20.3561 26.4654 20.6427C26.5964 20.9292 26.6651 21.2404 26.6667 21.5556V35.5556H35.5556V4.44444H8.88889V12.7778L11.8689 10.1689C12.2744 9.81452 12.7948 9.61948 13.3333 9.62ZM11.1111 28.8889H15.5556V35.5556H22.2222V22.5711L13.3333 14.7933L4.44444 22.5711V35.5556H11.1111V28.8889Z" fill="white"/>
</svg>
