<svg width="49" height="14" viewBox="0 0 49 14" fill="none" xmlns="http://www.w3.org/2000/svg">
<path d="M41.3938 13.8559C41.3452 13.9002 41.2885 13.9344 41.2267 13.9568C41.1649 13.9791 41.0994 13.989 41.0338 13.986C40.9682 13.983 40.9038 13.9671 40.8444 13.9392C40.7849 13.9113 40.7315 13.8719 40.6873 13.8234C40.643 13.7749 40.6087 13.7181 40.5864 13.6564C40.5641 13.5946 40.5542 13.529 40.5572 13.4634C40.5602 13.3978 40.5761 13.3335 40.604 13.274C40.6319 13.2146 40.6712 13.1612 40.7198 13.1169L46.8878 7.48692L0.500088 7.39315C0.367481 7.39315 0.240303 7.34047 0.146534 7.2467C0.0527649 7.15294 8.7738e-05 7.02576 8.7738e-05 6.89315C8.7738e-05 6.76054 0.0527649 6.63337 0.146534 6.5396C0.240303 6.44583 0.367481 6.39315 0.500088 6.39315L46.8848 6.48692L40.7198 0.85792C40.6269 0.767311 40.5728 0.644138 40.5691 0.514429C40.5654 0.38472 40.6122 0.258635 40.6997 0.162819C40.7872 0.0670017 40.9085 0.0089582 41.038 0.000953092C41.1676 -0.00705202 41.2951 0.0356085 41.3938 0.11992L48.3098 6.43392C48.3966 6.51282 48.4635 6.61108 48.5052 6.72072C48.5469 6.83036 48.5622 6.94828 48.5498 7.06492C48.5314 7.24809 48.4459 7.41798 48.3098 7.54192L41.3938 13.8559Z" fill="white"/>
</svg>
