<svg width="40" height="40" viewBox="0 0 40 40" fill="none" xmlns="http://www.w3.org/2000/svg">
<path d="M36.3636 12.7259C37.3281 12.7259 38.253 13.109 38.9349 13.7911C39.6169 14.473 40 15.398 40 16.3625V23.6356C40 24.6001 39.6169 25.525 38.9349 26.207C38.253 26.889 37.3281 27.2721 36.3636 27.2721H34.4327C33.9895 30.7874 32.2786 34.0201 29.6214 36.3635C26.9641 38.7068 23.5429 39.9999 20 40V36.3635C22.8933 36.3635 25.668 35.214 27.7139 33.1681C29.7597 31.1221 30.9091 28.3472 30.9091 25.4538V14.5442C30.9091 11.6508 29.7597 8.87589 27.7139 6.82994C25.668 4.78399 22.8933 3.63459 20 3.63459C17.1067 3.63459 14.332 4.78399 12.2861 6.82994C10.2403 8.87589 9.09091 11.6508 9.09091 14.5442V27.2721H3.63636C2.67194 27.2721 1.74702 26.889 1.06506 26.207C0.383115 25.525 0 24.6001 0 23.6356V16.3625C0 15.398 0.383115 14.473 1.06506 13.7911C1.74702 13.109 2.67194 12.7259 3.63636 12.7259H5.56727C6.01096 9.21104 7.72196 5.97883 10.3792 3.63581C13.0365 1.2928 16.4574 0 20 0C23.5426 0 26.9635 1.2928 29.6208 3.63581C32.278 5.97883 33.989 9.21104 34.4327 12.7259H36.3636ZM12.2909 26.8812L14.2182 23.7974C15.9511 24.883 17.9552 25.4571 20 25.4538C22.0448 25.4571 24.0489 24.883 25.7818 23.7974L27.7091 26.8812C25.3986 28.3288 22.7265 29.0946 20 29.0904C17.2735 29.0946 14.6014 28.3288 12.2909 26.8812Z" fill="white"/>
</svg>
