<svg width="26" height="26" viewBox="0 0 26 26" fill="none" xmlns="http://www.w3.org/2000/svg">
<path d="M24.4205 0.726676L25.1088 1.41501C26.0573 2.36468 25.9138 4.04818 24.7857 5.17518L10.5908 19.37L5.99183 21.0523C5.41433 21.2647 4.852 20.9893 4.73767 20.4398C4.69903 20.2405 4.71722 20.0343 4.79017 19.8448L6.50517 15.2062L20.6603 1.04984C21.7885 -0.0771576 23.472 -0.221824 24.4205 0.727842V0.726676ZM9.97133 2.13834C10.1245 2.13834 10.2762 2.16852 10.4178 2.22715C10.5593 2.28578 10.688 2.37172 10.7963 2.48005C10.9046 2.58839 10.9906 2.717 11.0492 2.85855C11.1078 3.00009 11.138 3.1518 11.138 3.30501C11.138 3.45822 11.1078 3.60993 11.0492 3.75147C10.9906 3.89302 10.9046 4.02163 10.7963 4.12997C10.688 4.2383 10.5593 4.32424 10.4178 4.38287C10.2762 4.4415 10.1245 4.47168 9.97133 4.47168H5.30467C4.68583 4.47168 4.09234 4.71751 3.65475 5.15509C3.21717 5.59268 2.97133 6.18617 2.97133 6.80501V20.805C2.97133 21.4238 3.21717 22.0173 3.65475 22.4549C4.09234 22.8925 4.68583 23.1383 5.30467 23.1383H19.3047C19.9235 23.1383 20.517 22.8925 20.9546 22.4549C21.3922 22.0173 21.638 21.4238 21.638 20.805V16.1383C21.638 15.8289 21.7609 15.5322 21.9797 15.3134C22.1985 15.0946 22.4952 14.9717 22.8047 14.9717C23.1141 14.9717 23.4108 15.0946 23.6296 15.3134C23.8484 15.5322 23.9713 15.8289 23.9713 16.1383V20.805C23.9713 22.0427 23.4797 23.2297 22.6045 24.1048C21.7293 24.98 20.5423 25.4717 19.3047 25.4717H5.30467C4.06699 25.4717 2.88001 24.98 2.00484 24.1048C1.12967 23.2297 0.638 22.0427 0.638 20.805V6.80501C0.638 5.56733 1.12967 4.38035 2.00484 3.50518C2.88001 2.63001 4.06699 2.13834 5.30467 2.13834H9.97133Z" fill="white"/>
</svg>
