<svg width="81" height="80" viewBox="0 0 81 80" fill="none" xmlns="http://www.w3.org/2000/svg">
<path d="M40.5 35.5111C34.658 35.5111 29.9222 30.8349 29.9222 25.0666C29.9222 19.2983 34.658 14.6222 40.5 14.6222C46.3419 14.6222 51.0778 19.2983 51.0778 25.0666C51.0778 30.8349 46.3419 35.5111 40.5 35.5111Z" fill="white"/>
<path d="M56.5444 26.1111H55.4777V25.1556C55.4712 22.3769 54.6873 19.6555 53.2146 17.2992C51.7419 14.9429 49.6392 13.0457 47.1444 11.8223C47.883 10.1213 49.0685 8.6521 50.575 7.57077C52.0815 6.48945 53.8527 5.83634 55.7006 5.68082C57.5485 5.52531 59.404 5.87319 61.07 6.68752C62.7361 7.50184 64.1504 8.75221 65.1629 10.3058C66.1754 11.8594 66.7482 13.6583 66.8205 15.5113C66.8927 17.3642 66.4618 19.2022 65.5733 20.83C64.6849 22.4577 63.3722 23.8144 61.7746 24.756C60.1771 25.6976 58.3543 26.1889 56.4999 26.1778L56.5444 26.1111ZM25.4777 25.0667V26.0222H24.4111C22.5814 26.0039 20.7905 25.4926 19.2269 24.5422C17.6633 23.5919 16.3848 22.2375 15.526 20.6218C14.6672 19.0061 14.2599 17.1887 14.3469 15.361C14.4339 13.5333 15.012 11.7629 16.0204 10.2361C17.0288 8.70922 18.4301 7.48246 20.077 6.68491C21.7238 5.88736 23.5551 5.54851 25.3783 5.70404C27.2014 5.85956 28.9489 6.5037 30.4368 7.56866C31.9248 8.63362 33.0981 10.08 33.8333 11.7556C31.3377 12.9742 29.2326 14.8666 27.7561 17.2189C26.2796 19.5711 25.4904 22.2895 25.4777 25.0667ZM30.9666 36.5556C26.5482 37.4301 22.2761 38.9265 18.2777 41C17.7144 41.3095 17.2042 41.7071 16.7666 42.1778H4.94439V34.5778C4.94223 34.2863 5.01975 33.9998 5.16857 33.7491C5.31739 33.4985 5.53187 33.2932 5.78883 33.1556C11.5485 30.143 17.9556 28.5793 24.4555 28.6H25.9222C26.6923 31.7305 28.4635 34.5239 30.9666 36.5556V36.5556ZM65.9888 46.4889C65.9929 45.3697 65.6906 44.2708 65.1148 43.3111C64.539 42.3514 63.7116 41.5676 62.7222 41.0445C58.7238 38.9709 54.4516 37.4746 50.0333 36.6C52.5242 34.5856 54.2943 31.8174 55.0777 28.7111H56.5444C63.0443 28.6904 69.4514 30.2541 75.2111 33.2667C75.468 33.4043 75.6825 33.6096 75.8313 33.8602C75.9801 34.1109 76.0577 34.3974 76.0555 34.6889V48.8889H65.9888V46.4889ZM32.8111 59.3111H19.5666V62.4223H32.8111V59.3111Z" fill="white"/>
<path d="M7.58883 47.2444H22.8555V45.0222C22.8555 44.4329 23.0896 43.8676 23.5064 43.4509C23.9231 43.0341 24.4884 42.8 25.0777 42.8C25.6671 42.8 26.2323 43.0341 26.6491 43.4509C27.0658 43.8676 27.2999 44.4329 27.2999 45.0222V47.2444H31.6111V40.9556C34.5348 40.3416 37.5125 40.0215 40.4999 40C47.5138 39.9708 54.4275 41.6649 60.6333 44.9333C60.9097 45.0767 61.1411 45.2938 61.3019 45.5604C61.4627 45.8271 61.5466 46.1331 61.5444 46.4444V58.9111H45.7444V72.4444C45.7444 73.0338 45.5103 73.599 45.0935 74.0158C44.6768 74.4325 44.1115 74.6667 43.5222 74.6667H7.58883C6.99946 74.6667 6.43424 74.4325 6.01749 74.0158C5.60074 73.599 5.36661 73.0338 5.36661 72.4444V49.4667C5.36661 48.8773 5.60074 48.3121 6.01749 47.8953C6.43424 47.4786 6.99946 47.2444 7.58883 47.2444ZM9.81106 70.2667H41.2999V51.6889H27.2999V53.7111C27.2999 54.3005 27.0658 54.8657 26.6491 55.2825C26.2323 55.6992 25.6671 55.9333 25.0777 55.9333C24.4884 55.9333 23.9231 55.6992 23.5064 55.2825C23.0896 54.8657 22.8555 54.3005 22.8555 53.7111V51.6889H9.81106V70.2667Z" fill="white"/>
</svg>
