<svg width="81" height="80" viewBox="0 0 81 80" fill="none" xmlns="http://www.w3.org/2000/svg">
<path d="M36.5 7.19604C54.28 7.19604 68.744 21.444 69.176 39.18V40H78.664L64.288 55.576L50.312 40H61V39.18C60.572 25.968 49.768 15.4 36.5 15.4C22.956 15.4 11.976 26.416 11.976 40C11.976 53.584 22.956 64.6 36.5 64.6C41.7221 64.6031 46.8074 62.9305 51.008 59.828L56.632 65.844C50.892 70.3555 43.8008 72.8042 36.5 72.796C18.44 72.796 3.804 58.116 3.804 40C3.804 21.884 18.44 7.19604 36.5 7.19604ZM40.5 20V40C40.4954 41.06 40.0745 42.0756 39.328 42.828L26.528 55.628C25.396 54.896 24.328 54.072 23.38 53.116L32.5 44V20H40.5Z" fill="white"/>
</svg>
