<svg width="71" height="80" viewBox="0 0 71 80" fill="none" xmlns="http://www.w3.org/2000/svg">
<g clip-path="url(#clip0_2_281)">
<path d="M3.68327 0C2.82157 0 2.07586 0.282738 1.44615 0.848214C0.816449 1.41369 0.501595 2.08333 0.501595 2.85714V77.1429C0.501595 77.9167 0.816449 78.5863 1.44615 79.1518C2.07586 79.7173 2.82157 80 3.68327 80H67.3167C68.1784 80 68.9241 79.7173 69.5539 79.1518C70.1836 78.5863 70.4984 77.9167 70.4984 77.1429V2.85714C70.4984 2.08333 70.1836 1.41369 69.5539 0.848214C68.9241 0.282738 68.1784 0 67.3167 0H3.68327ZM45.045 12.8571V15.7143C45.045 16.131 44.8959 16.4732 44.5976 16.7411C44.2993 17.0089 43.9182 17.1429 43.4542 17.1429H40.2725C39.8085 17.1429 39.4274 17.0089 39.1291 16.7411C38.8308 16.4732 38.6817 16.131 38.6817 15.7143V12.8571C38.6817 12.4405 38.8308 12.0982 39.1291 11.8304C39.4274 11.5625 39.8085 11.4286 40.2725 11.4286H43.4542C43.9182 11.4286 44.2993 11.5625 44.5976 11.8304C44.8959 12.0982 45.045 12.4405 45.045 12.8571ZM45.045 24.2857V27.1429C45.045 27.5595 44.8959 27.9018 44.5976 28.1696C44.2993 28.4375 43.9182 28.5714 43.4542 28.5714H40.2725C39.8085 28.5714 39.4274 28.4375 39.1291 28.1696C38.8308 27.9018 38.6817 27.5595 38.6817 27.1429V24.2857C38.6817 23.869 38.8308 23.5268 39.1291 23.2589C39.4274 22.9911 39.8085 22.8571 40.2725 22.8571H43.4542C43.9182 22.8571 44.2993 22.9911 44.5976 23.2589C44.8959 23.5268 45.045 23.869 45.045 24.2857ZM45.045 35.7143V38.5714C45.045 38.9881 44.8959 39.3304 44.5976 39.5982C44.2993 39.8661 43.9182 40 43.4542 40H40.2725C39.8085 40 39.4274 39.8661 39.1291 39.5982C38.8308 39.3304 38.6817 38.9881 38.6817 38.5714V35.7143C38.6817 35.2976 38.8308 34.9554 39.1291 34.6875C39.4274 34.4196 39.8085 34.2857 40.2725 34.2857H43.4542C43.9182 34.2857 44.2993 34.4196 44.5976 34.6875C44.8959 34.9554 45.045 35.2976 45.045 35.7143ZM45.045 47.1429V50C45.045 50.4167 44.8959 50.7589 44.5976 51.0268C44.2993 51.2946 43.9182 51.4286 43.4542 51.4286H40.2725C39.8085 51.4286 39.4274 51.2946 39.1291 51.0268C38.8308 50.7589 38.6817 50.4167 38.6817 50V47.1429C38.6817 46.7262 38.8308 46.3839 39.1291 46.1161C39.4274 45.8482 39.8085 45.7143 40.2725 45.7143H43.4542C43.9182 45.7143 44.2993 45.8482 44.5976 46.1161C44.8959 46.3839 45.045 46.7262 45.045 47.1429ZM51.4084 61.4286V58.5714C51.4084 58.1548 51.5575 57.8125 51.8558 57.5446C52.1541 57.2768 52.5352 57.1429 52.9992 57.1429H56.1809C56.6449 57.1429 57.026 57.2768 57.3243 57.5446C57.6226 57.8125 57.7717 58.1548 57.7717 58.5714V61.4286C57.7717 61.8452 57.6226 62.1875 57.3243 62.4554C57.026 62.7232 56.6449 62.8571 56.1809 62.8571H52.9992C52.5352 62.8571 52.1541 62.7232 51.8558 62.4554C51.5575 62.1875 51.4084 61.8452 51.4084 61.4286ZM51.4084 50V47.1429C51.4084 46.7262 51.5575 46.3839 51.8558 46.1161C52.1541 45.8482 52.5352 45.7143 52.9992 45.7143H56.1809C56.6449 45.7143 57.026 45.8482 57.3243 46.1161C57.6226 46.3839 57.7717 46.7262 57.7717 47.1429V50C57.7717 50.4167 57.6226 50.7589 57.3243 51.0268C57.026 51.2946 56.6449 51.4286 56.1809 51.4286H52.9992C52.5352 51.4286 52.1541 51.2946 51.8558 51.0268C51.5575 50.7589 51.4084 50.4167 51.4084 50ZM51.4084 38.5714V35.7143C51.4084 35.2976 51.5575 34.9554 51.8558 34.6875C52.1541 34.4196 52.5352 34.2857 52.9992 34.2857H56.1809C56.6449 34.2857 57.026 34.4196 57.3243 34.6875C57.6226 34.9554 57.7717 35.2976 57.7717 35.7143V38.5714C57.7717 38.9881 57.6226 39.3304 57.3243 39.5982C57.026 39.8661 56.6449 40 56.1809 40H52.9992C52.5352 40 52.1541 39.8661 51.8558 39.5982C51.5575 39.3304 51.4084 38.9881 51.4084 38.5714ZM51.4084 27.1429V24.2857C51.4084 23.869 51.5575 23.5268 51.8558 23.2589C52.1541 22.9911 52.5352 22.8571 52.9992 22.8571H56.1809C56.6449 22.8571 57.026 22.9911 57.3243 23.2589C57.6226 23.5268 57.7717 23.869 57.7717 24.2857V27.1429C57.7717 27.5595 57.6226 27.9018 57.3243 28.1696C57.026 28.4375 56.6449 28.5714 56.1809 28.5714H52.9992C52.5352 28.5714 52.1541 28.4375 51.8558 28.1696C51.5575 27.9018 51.4084 27.5595 51.4084 27.1429ZM51.4084 15.7143V12.8571C51.4084 12.4405 51.5575 12.0982 51.8558 11.8304C52.1541 11.5625 52.5352 11.4286 52.9992 11.4286H56.1809C56.6449 11.4286 57.026 11.5625 57.3243 11.8304C57.6226 12.0982 57.7717 12.4405 57.7717 12.8571V15.7143C57.7717 16.131 57.6226 16.4732 57.3243 16.7411C57.026 17.0089 56.6449 17.1429 56.1809 17.1429H52.9992C52.5352 17.1429 52.1541 17.0089 51.8558 16.7411C51.5575 16.4732 51.4084 16.131 51.4084 15.7143ZM25.955 72.8571V64.2857C25.955 63.869 26.1041 63.5268 26.4024 63.2589C26.7007 62.9911 27.0818 62.8571 27.5458 62.8571H43.4542C43.9182 62.8571 44.2993 62.9911 44.5976 63.2589C44.8959 63.5268 45.045 63.869 45.045 64.2857V72.8571C45.045 73.2738 44.8959 73.6161 44.5976 73.8839C44.2993 74.1518 43.9182 74.2857 43.4542 74.2857H27.5458C27.0818 74.2857 26.7007 74.1518 26.4024 73.8839C26.1041 73.6161 25.955 73.2738 25.955 72.8571ZM25.955 50V47.1429C25.955 46.7262 26.1041 46.3839 26.4024 46.1161C26.7007 45.8482 27.0818 45.7143 27.5458 45.7143H30.7275C31.1915 45.7143 31.5726 45.8482 31.8709 46.1161C32.1692 46.3839 32.3183 46.7262 32.3183 47.1429V50C32.3183 50.4167 32.1692 50.7589 31.8709 51.0268C31.5726 51.2946 31.1915 51.4286 30.7275 51.4286H27.5458C27.0818 51.4286 26.7007 51.2946 26.4024 51.0268C26.1041 50.7589 25.955 50.4167 25.955 50ZM25.955 38.5714V35.7143C25.955 35.2976 26.1041 34.9554 26.4024 34.6875C26.7007 34.4196 27.0818 34.2857 27.5458 34.2857H30.7275C31.1915 34.2857 31.5726 34.4196 31.8709 34.6875C32.1692 34.9554 32.3183 35.2976 32.3183 35.7143V38.5714C32.3183 38.9881 32.1692 39.3304 31.8709 39.5982C31.5726 39.8661 31.1915 40 30.7275 40H27.5458C27.0818 40 26.7007 39.8661 26.4024 39.5982C26.1041 39.3304 25.955 38.9881 25.955 38.5714ZM25.955 27.1429V24.2857C25.955 23.869 26.1041 23.5268 26.4024 23.2589C26.7007 22.9911 27.0818 22.8571 27.5458 22.8571H30.7275C31.1915 22.8571 31.5726 22.9911 31.8709 23.2589C32.1692 23.5268 32.3183 23.869 32.3183 24.2857V27.1429C32.3183 27.5595 32.1692 27.9018 31.8709 28.1696C31.5726 28.4375 31.1915 28.5714 30.7275 28.5714H27.5458C27.0818 28.5714 26.7007 28.4375 26.4024 28.1696C26.1041 27.9018 25.955 27.5595 25.955 27.1429ZM25.955 15.7143V12.8571C25.955 12.4405 26.1041 12.0982 26.4024 11.8304C26.7007 11.5625 27.0818 11.4286 27.5458 11.4286H30.7275C31.1915 11.4286 31.5726 11.5625 31.8709 11.8304C32.1692 12.0982 32.3183 12.4405 32.3183 12.8571V15.7143C32.3183 16.131 32.1692 16.4732 31.8709 16.7411C31.5726 17.0089 31.1915 17.1429 30.7275 17.1429H27.5458C27.0818 17.1429 26.7007 17.0089 26.4024 16.7411C26.1041 16.4732 25.955 16.131 25.955 15.7143ZM13.2283 61.4286V58.5714C13.2283 58.1548 13.3774 57.8125 13.6757 57.5446C13.974 57.2768 14.3551 57.1429 14.8191 57.1429H18.0008C18.4648 57.1429 18.8459 57.2768 19.1442 57.5446C19.4425 57.8125 19.5916 58.1548 19.5916 58.5714V61.4286C19.5916 61.8452 19.4425 62.1875 19.1442 62.4554C18.8459 62.7232 18.4648 62.8571 18.0008 62.8571H14.8191C14.3551 62.8571 13.974 62.7232 13.6757 62.4554C13.3774 62.1875 13.2283 61.8452 13.2283 61.4286ZM13.2283 50V47.1429C13.2283 46.7262 13.3774 46.3839 13.6757 46.1161C13.974 45.8482 14.3551 45.7143 14.8191 45.7143H18.0008C18.4648 45.7143 18.8459 45.8482 19.1442 46.1161C19.4425 46.3839 19.5916 46.7262 19.5916 47.1429V50C19.5916 50.4167 19.4425 50.7589 19.1442 51.0268C18.8459 51.2946 18.4648 51.4286 18.0008 51.4286H14.8191C14.3551 51.4286 13.974 51.2946 13.6757 51.0268C13.3774 50.7589 13.2283 50.4167 13.2283 50ZM13.2283 38.5714V35.7143C13.2283 35.2976 13.3774 34.9554 13.6757 34.6875C13.974 34.4196 14.3551 34.2857 14.8191 34.2857H18.0008C18.4648 34.2857 18.8459 34.4196 19.1442 34.6875C19.4425 34.9554 19.5916 35.2976 19.5916 35.7143V38.5714C19.5916 38.9881 19.4425 39.3304 19.1442 39.5982C18.8459 39.8661 18.4648 40 18.0008 40H14.8191C14.3551 40 13.974 39.8661 13.6757 39.5982C13.3774 39.3304 13.2283 38.9881 13.2283 38.5714ZM13.2283 27.1429V24.2857C13.2283 23.869 13.3774 23.5268 13.6757 23.2589C13.974 22.9911 14.3551 22.8571 14.8191 22.8571H18.0008C18.4648 22.8571 18.8459 22.9911 19.1442 23.2589C19.4425 23.5268 19.5916 23.869 19.5916 24.2857V27.1429C19.5916 27.5595 19.4425 27.9018 19.1442 28.1696C18.8459 28.4375 18.4648 28.5714 18.0008 28.5714H14.8191C14.3551 28.5714 13.974 28.4375 13.6757 28.1696C13.3774 27.9018 13.2283 27.5595 13.2283 27.1429ZM13.2283 15.7143V12.8571C13.2283 12.4405 13.3774 12.0982 13.6757 11.8304C13.974 11.5625 14.3551 11.4286 14.8191 11.4286H18.0008C18.4648 11.4286 18.8459 11.5625 19.1442 11.8304C19.4425 12.0982 19.5916 12.4405 19.5916 12.8571V15.7143C19.5916 16.131 19.4425 16.4732 19.1442 16.7411C18.8459 17.0089 18.4648 17.1429 18.0008 17.1429H14.8191C14.3551 17.1429 13.974 17.0089 13.6757 16.7411C13.3774 16.4732 13.2283 16.131 13.2283 15.7143Z" fill="white"/>
</g>
<defs>
<clipPath id="clip0_2_281">
<rect width="70" height="80" fill="white" transform="matrix(-1 0 0 1 70.5 0)"/>
</clipPath>
</defs>
</svg>
