<svg width="80" height="80" viewBox="0 0 80 80" fill="none" xmlns="http://www.w3.org/2000/svg">
<path d="M37.6 36C39.2 35.6 40.8 34.8 42 33.6C43.2 33.2 43.6 32 43.6 31.2C43.6 30.4 43.2 29.2 42.4 28.8C41.2 28 40 27.2 38.8 27.6C36.4 27.6 34.4 28.8 33.2 30.4L29.6 25.6C30.8 24.4 32 23.6 33.2 22.8C34.4 22 36 21.6 37.6 21.6V16H42.4V21.6C44.4 22 46.4 23.2 48 24.8C49.6 26.8 50.8 29.2 50.4 31.6C50.4 34 49.6 36.4 48 38C46 40 43.2 41.2 40.8 42.4C39.6 42.8 38 43.6 36.8 44.4C36 45.2 35.6 46.4 35.6 47.6C35.6 48.8 36 50 36.8 51.2C38 52.4 39.6 52.8 40.8 52.8C42.4 52.8 44.4 52.4 45.6 51.2C46.8 50.4 48 49.2 48.8 48L52.8 52.4C51.6 54 50.4 55.2 48.8 56.4C46.8 57.6 44.4 58.8 42 58.8V64H37.6V58C35.2 57.6 33.2 56.4 31.6 54.8C29.6 52.8 28.4 49.6 28.4 46.8C28.4 44.4 29.2 41.6 31.2 40C33.2 38 35.2 36.8 37.6 36V36ZM40 8C57.6 8 72 22.4 72 40C72 57.6 57.6 72 40 72C22.4 72 8 57.6 8 40C8 22.4 22.4 8 40 8ZM40 67.6C55.2 67.6 67.6 55.2 67.6 40C67.6 24.8 55.2 12.4 40 12.4C24.8 12.4 12.4 24.8 12.4 40C12.4 55.2 24.8 67.6 40 67.6V67.6Z" fill="white"/>
</svg>
