<svg width="120" height="120" viewBox="0 0 120 120" fill="none" xmlns="http://www.w3.org/2000/svg">
<path d="M37.5 71.25H45V78.75H37.5V71.25ZM56.25 71.25H63.75V78.75H56.25V71.25ZM75 71.25H82.5V78.75H75V71.25Z" fill="#1269CD"/>
<path d="M103.125 108.75V20.625H86.25V3.75H33.75V20.625H16.875V108.75H3.75V116.25H116.25V108.75H103.125ZM41.25 11.25H78.75V48.75H41.25V11.25ZM95.625 108.75H63.75V93.75H56.25V108.75H24.375V28.125H33.75V56.25H86.25V28.125H95.625V108.75Z" fill="#1269CD"/>
<path d="M63.75 18.75H56.25V26.25H48.75V33.75H56.25V41.25H63.75V33.75H71.25V26.25H63.75V18.75Z" fill="#1269CD"/>
</svg>
