<svg width="120" height="120" viewBox="0 0 120 120" fill="none" xmlns="http://www.w3.org/2000/svg">
<path d="M105 22.5H15C13.0115 22.502 11.105 23.2928 9.69889 24.6989C8.2928 26.105 7.50199 28.0115 7.5 30V90C7.50199 91.9885 8.2928 93.895 9.69889 95.3011C11.105 96.7072 13.0115 97.498 15 97.5H105C106.989 97.498 108.895 96.7072 110.301 95.3011C111.707 93.895 112.498 91.9885 112.5 90V30C112.498 28.0115 111.707 26.105 110.301 24.6989C108.895 23.2928 106.989 22.502 105 22.5V22.5ZM75 90H45V82.5C45 81.5054 45.3951 80.5516 46.0984 79.8483C46.8016 79.1451 47.7554 78.75 48.75 78.75H71.25C72.2446 78.75 73.1984 79.1451 73.9017 79.8483C74.6049 80.5516 75 81.5054 75 82.5V90ZM105 90H82.5V82.5C82.5 79.5163 81.3147 76.6548 79.205 74.545C77.0952 72.4353 74.2337 71.25 71.25 71.25H48.75C45.7663 71.25 42.9048 72.4353 40.795 74.545C38.6853 76.6548 37.5 79.5163 37.5 82.5V90H15V30H105V90Z" fill="#1269CD"/>
<path d="M60 67.5C62.9667 67.5 65.8668 66.6203 68.3336 64.9721C70.8003 63.3238 72.7229 60.9812 73.8582 58.2403C74.9935 55.4994 75.2906 52.4834 74.7118 49.5737C74.133 46.6639 72.7044 43.9912 70.6066 41.8934C68.5088 39.7956 65.8361 38.367 62.9264 37.7882C60.0166 37.2094 57.0006 37.5065 54.2597 38.6418C51.5189 39.7771 49.1762 41.6997 47.528 44.1665C45.8797 46.6332 45 49.5333 45 52.5C45 56.4783 46.5804 60.2936 49.3934 63.1066C52.2064 65.9197 56.0218 67.5 60 67.5ZM60 45C61.4834 45 62.9334 45.4399 64.1668 46.264C65.4001 47.0881 66.3614 48.2594 66.9291 49.6299C67.4968 51.0003 67.6453 52.5083 67.3559 53.9632C67.0665 55.418 66.3522 56.7544 65.3033 57.8033C64.2544 58.8522 62.918 59.5665 61.4632 59.8559C60.0083 60.1453 58.5003 59.9968 57.1299 59.4291C55.7594 58.8614 54.5881 57.9002 53.764 56.6668C52.9399 55.4334 52.5 53.9834 52.5 52.5C52.5 50.5109 53.2902 48.6032 54.6967 47.1967C56.1032 45.7902 58.0109 45 60 45V45Z" fill="#1269CD"/>
</svg>
