<svg width="120" height="120" viewBox="0 0 120 120" fill="none" xmlns="http://www.w3.org/2000/svg">
<path d="M97.5 112.5H41.25C39.2615 112.498 37.355 111.707 35.9489 110.301C34.5428 108.895 33.752 106.989 33.75 105V82.5H41.25V105H97.5V22.5H63.75V15H97.5C99.4885 15.002 101.395 15.7928 102.801 17.1989C104.207 18.605 104.998 20.5115 105 22.5V105C104.998 106.989 104.207 108.895 102.801 110.301C101.395 111.707 99.4885 112.498 97.5 112.5Z" fill="#1269CD"/>
<path d="M63.75 37.5H90V45H63.75V37.5ZM60 56.25H90V63.75H60V56.25ZM56.25 75H90V82.5H56.25V75ZM33.75 71.25C28.7787 71.245 24.0125 69.268 20.4972 65.7528C16.982 62.2375 15.005 57.4713 15 52.5V11.25H22.5V52.5C22.5 55.4837 23.6853 58.3452 25.795 60.455C27.9048 62.5647 30.7663 63.75 33.75 63.75C36.7337 63.75 39.5952 62.5647 41.705 60.455C43.8147 58.3452 45 55.4837 45 52.5V18.75C45 17.7554 44.6049 16.8016 43.9016 16.0984C43.1984 15.3951 42.2446 15 41.25 15C40.2554 15 39.3016 15.3951 38.5984 16.0984C37.8951 16.8016 37.5 17.7554 37.5 18.75V56.25H30V18.75C30 15.7663 31.1853 12.9048 33.295 10.795C35.4048 8.68526 38.2663 7.5 41.25 7.5C44.2337 7.5 47.0952 8.68526 49.205 10.795C51.3147 12.9048 52.5 15.7663 52.5 18.75V52.5C52.495 57.4713 50.518 62.2375 47.0028 65.7528C43.4875 69.268 38.7213 71.245 33.75 71.25Z" fill="#1269CD"/>
</svg>
