<svg width="150" height="150" viewBox="0 0 150 150" fill="none" xmlns="http://www.w3.org/2000/svg">
<path fill-rule="evenodd" clip-rule="evenodd" d="M41.25 65.6251C41.25 65.6251 43.8 65.2813 47.5 64.2938C57.2562 61.6907 75 54.6251 75 37.6313C75 35.1518 74.5116 32.6966 73.5627 30.4058C72.6139 28.115 71.2231 26.0336 69.4698 24.2803C67.7165 22.527 65.6351 21.1362 63.3443 20.1873C61.0535 19.2385 58.5983 18.7501 56.1187 18.7501H37.6312C35.1315 18.7179 32.6502 19.1825 30.3314 20.1169C28.0127 21.0512 25.9025 22.4368 24.1234 24.1931C22.3444 25.9495 20.9318 28.0416 19.9677 30.3482C19.0035 32.6547 18.5071 35.1298 18.5071 37.6298C18.5071 40.1297 19.0035 42.6048 19.9677 44.9114C20.9318 47.218 22.3444 49.3101 24.1234 51.0664C25.9025 52.8228 28.0127 54.2083 30.3314 55.1427C32.6502 56.0771 35.1315 56.5416 37.6312 56.5095H41.25V65.6251ZM47.5 50.2595H37.6312C35.956 50.2858 34.2922 49.9786 32.7368 49.3557C31.1814 48.7329 29.7655 47.8068 28.5714 46.6314C27.3774 45.456 26.4292 44.0548 25.7819 42.5094C25.1346 40.964 24.8013 39.3053 24.8013 37.6298C24.8013 35.9543 25.1346 34.2956 25.7819 32.7502C26.4292 31.2048 27.3774 29.8036 28.5714 28.6282C29.7655 27.4528 31.1814 26.5267 32.7368 25.9038C34.2922 25.2809 35.956 24.9737 37.6312 25.0001H56.1187C57.7775 25.0001 59.42 25.3268 60.9525 25.9616C62.485 26.5964 63.8775 27.5268 65.0504 28.6997C66.2233 29.8726 67.1537 31.2651 67.7885 32.7976C68.4233 34.3301 68.75 35.9726 68.75 37.6313C68.75 45.7032 63.1 51.0782 55.4094 54.7876C52.8568 56.0004 50.212 57.0087 47.5 57.8032V50.2595V50.2595ZM45.3125 100C52.2187 100 57.8125 94.4063 57.8125 87.5001C57.8125 80.5938 52.2187 75.0001 45.3125 75.0001C38.4062 75.0001 32.8125 80.5938 32.8125 87.5001C32.8125 94.4063 38.4062 100 45.3125 100ZM51.5625 87.5001C51.5625 89.1577 50.904 90.7474 49.7319 91.9195C48.5598 93.0916 46.9701 93.7501 45.3125 93.7501C43.6549 93.7501 42.0652 93.0916 40.8931 91.9195C39.721 90.7474 39.0625 89.1577 39.0625 87.5001C39.0625 85.8425 39.721 84.2528 40.8931 83.0807C42.0652 81.9086 43.6549 81.2501 45.3125 81.2501C46.9701 81.2501 48.5598 81.9086 49.7319 83.0807C50.904 84.2528 51.5625 85.8425 51.5625 87.5001V87.5001ZM18.75 119.584C18.75 110.716 36.4469 106.25 45.3125 106.25C54.1781 106.25 71.875 110.719 71.875 119.584V131.25H18.75V119.584ZM25 125V119.584C25 119.553 25 119.491 25.0812 119.334C25.1812 119.141 25.4094 118.8 25.9031 118.344C26.9312 117.391 28.6531 116.35 31.0375 115.391C35.8187 113.469 41.6625 112.5 45.3125 112.5C48.9594 112.5 54.8094 113.469 59.5875 115.391C61.9687 116.35 63.6937 117.391 64.7219 118.344C65.2156 118.8 65.4437 119.141 65.5437 119.331C65.625 119.488 65.625 119.556 65.625 119.581V125H25ZM117.187 87.5001C117.187 94.4063 111.594 100 104.687 100C97.7812 100 92.1875 94.4063 92.1875 87.5001C92.1875 80.5938 97.7812 75.0001 104.687 75.0001C111.594 75.0001 117.187 80.5938 117.187 87.5001ZM104.687 93.7501C106.345 93.7501 107.935 93.0916 109.107 91.9195C110.279 90.7474 110.937 89.1577 110.937 87.5001C110.937 85.8425 110.279 84.2528 109.107 83.0807C107.935 81.9086 106.345 81.2501 104.687 81.2501C103.03 81.2501 101.44 81.9086 100.268 83.0807C99.096 84.2528 98.4375 85.8425 98.4375 87.5001C98.4375 89.1577 99.096 90.7474 100.268 91.9195C101.44 93.0916 103.03 93.7501 104.687 93.7501ZM78.125 119.584C78.125 110.716 95.8219 106.25 104.687 106.25C113.553 106.25 131.25 110.719 131.25 119.584V131.25H78.125V119.584ZM84.375 125V119.584C84.375 119.553 84.375 119.491 84.4562 119.334C84.5562 119.141 84.7844 118.8 85.275 118.344C86.3062 117.391 88.0312 116.35 90.4125 115.391C95.1937 113.469 101.037 112.5 104.687 112.5C108.334 112.5 114.184 113.469 118.962 115.391C121.344 116.35 123.069 117.391 124.1 118.344C124.591 118.8 124.819 119.141 124.919 119.331C125 119.488 125 119.556 125 119.581V125H84.375ZM105 67.2063C108.656 68.3563 111.25 68.7501 111.25 68.7501V59.6345H112.369C114.868 59.6666 117.35 59.2021 119.669 58.2677C121.987 57.3333 124.097 55.9478 125.877 54.1914C127.656 52.4351 129.068 50.343 130.032 48.0364C130.996 45.7298 131.493 43.2547 131.493 40.7548C131.493 38.2548 130.996 35.7798 130.032 33.4732C129.068 31.1666 127.656 29.0745 125.877 27.3181C124.097 25.5618 121.987 24.1762 119.669 23.2419C117.35 22.3075 114.868 21.8429 112.369 21.8751H100.131C95.1236 21.8751 90.3211 23.8644 86.7802 27.4053C83.2393 30.9462 81.25 35.7487 81.25 40.7563C81.25 57.3063 96.2094 64.4438 105 67.2063ZM112.369 53.3845H105V60.6126C103.016 59.9039 101.087 59.0473 99.2312 58.0501C92.7187 54.5157 87.5 49.2126 87.5 40.7532C87.5008 37.4037 88.832 34.1917 91.2007 31.8236C93.5694 29.4555 96.7818 28.1251 100.131 28.1251H112.369C114.044 28.0987 115.708 28.4059 117.263 29.0288C118.819 29.6517 120.235 30.5778 121.429 31.7532C122.623 32.9286 123.571 34.3298 124.218 35.8752C124.865 37.4206 125.199 39.0793 125.199 40.7548C125.199 42.4303 124.865 44.089 124.218 45.6344C123.571 47.1798 122.623 48.581 121.429 49.7564C120.235 50.9318 118.819 51.8579 117.263 52.4807C115.708 53.1036 114.044 53.4108 112.369 53.3845Z" fill="#1269CD"/>
</svg>
