<svg width="120" height="120" viewBox="0 0 120 120" fill="none" xmlns="http://www.w3.org/2000/svg">
<path d="M54.7667 55.6333C50.1518 55.6333 45.6405 54.2649 41.8034 51.701C37.9662 49.1371 34.9755 45.4929 33.2095 41.2293C31.4434 36.9657 30.9814 32.2741 31.8817 27.7479C32.782 23.2217 35.0043 19.0641 38.2675 15.8009C41.5307 12.5376 45.6884 10.3154 50.2146 9.41503C54.7408 8.51471 59.4324 8.97678 63.696 10.7428C67.9596 12.5089 71.6037 15.4996 74.1676 19.3367C76.7315 23.1739 78.1 27.6851 78.1 32.3C78.1 38.4884 75.6417 44.4233 71.2658 48.7992C66.89 53.175 60.9551 55.6333 54.7667 55.6333ZM54.7667 15.9C51.4703 15.9 48.248 16.8775 45.5072 18.7089C42.7664 20.5402 40.6302 23.1432 39.3687 26.1886C38.1072 29.2341 37.7772 32.5852 38.4203 35.8182C39.0633 39.0512 40.6507 42.0209 42.9816 44.3518C45.3124 46.6827 48.2822 48.27 51.5152 48.9131C54.7482 49.5562 58.0993 49.2261 61.1447 47.9647C64.1902 46.7032 66.7932 44.567 68.6245 41.8262C70.4559 39.0854 71.4333 35.863 71.4333 32.5667C71.4333 30.378 71.0023 28.2107 70.1647 26.1886C69.3271 24.1665 68.0994 22.3292 66.5518 20.7816C65.0042 19.2339 63.1668 18.0063 61.1447 17.1687C59.1226 16.3311 56.9554 15.9 54.7667 15.9V15.9ZM73.3333 59.6667C55.2947 55.6076 36.4234 57.5626 19.6 65.2333C17.2863 66.3385 15.3342 68.0783 13.971 70.25C12.6078 72.4217 11.8896 74.9359 11.9 77.5V97.3333C11.9 97.7711 11.9862 98.2045 12.1537 98.6089C12.3213 99.0134 12.5668 99.3808 12.8763 99.6904C13.1859 99.9999 13.5533 100.245 13.9577 100.413C14.3622 100.58 14.7956 100.667 15.2333 100.667C15.6711 100.667 16.1045 100.58 16.509 100.413C16.9134 100.245 17.2808 99.9999 17.5904 99.6904C17.8999 99.3808 18.1454 99.0134 18.3129 98.6089C18.4805 98.2045 18.5667 97.7711 18.5667 97.3333V77.5C18.5377 76.2023 18.8881 74.9244 19.5749 73.8231C20.2618 72.7217 21.2552 71.8448 22.4333 71.3C32.5676 66.6207 43.6044 64.2199 54.7667 64.2667C61.0211 64.2587 67.254 64.9973 73.3333 66.4667V59.6667ZM73.8 91.3667H94.2667V96.0333H73.8V91.3667Z" fill="#1269CD"/>
<path d="M110.567 71.5667H93.3332V78.2334H107.233V106.133H59.9999V78.2334H80.9999V79.6334C80.9999 80.5174 81.3511 81.3653 81.9762 81.9904C82.6013 82.6155 83.4492 82.9667 84.3332 82.9667C85.2173 82.9667 86.0651 82.6155 86.6903 81.9904C87.3154 81.3653 87.6666 80.5174 87.6666 79.6334V66.6667C87.6666 65.7827 87.3154 64.9348 86.6903 64.3097C86.0651 63.6846 85.2173 63.3334 84.3332 63.3334C83.4492 63.3334 82.6013 63.6846 81.9762 64.3097C81.3511 64.9348 80.9999 65.7827 80.9999 66.6667V71.5667H56.6666C55.7825 71.5667 54.9347 71.9179 54.3096 72.543C53.6844 73.1681 53.3333 74.016 53.3333 74.9V109.467C53.3333 110.351 53.6844 111.199 54.3096 111.824C54.9347 112.449 55.7825 112.8 56.6666 112.8H110.567C111.451 112.8 112.298 112.449 112.924 111.824C113.549 111.199 113.9 110.351 113.9 109.467V74.9C113.9 74.016 113.549 73.1681 112.924 72.543C112.298 71.9179 111.451 71.5667 110.567 71.5667Z" fill="#1269CD"/>
</svg>
