<svg width="27" height="26" viewBox="0 0 27 26" fill="none" xmlns="http://www.w3.org/2000/svg">
<path d="M24.5322 12.8223L14.0738 2.37149C13.9985 2.29603 13.9091 2.23617 13.8106 2.19533C13.7121 2.15449 13.6066 2.13347 13.5 2.13347C13.3934 2.13347 13.2878 2.15449 13.1894 2.19533C13.0909 2.23617 13.0015 2.29603 12.9262 2.37149L2.46776 12.8223C2.16307 13.127 1.99042 13.5408 1.99042 13.9725C1.99042 14.8688 2.71913 15.5975 3.61542 15.5975H4.71737V23.0547C4.71737 23.5041 5.08046 23.8672 5.52987 23.8672H11.875V18.1797H14.7187V23.8672H21.4701C21.9195 23.8672 22.2826 23.5041 22.2826 23.0547V15.5975H23.3846C23.8162 15.5975 24.2301 15.4273 24.5348 15.1201C25.167 14.4854 25.167 13.457 24.5322 12.8223Z" fill="white"/>
</svg>
