<svg width="25" height="22" viewBox="0 0 25 22" fill="none" xmlns="http://www.w3.org/2000/svg">
<path d="M23.5322 10.8223L13.0738 0.371485C12.9985 0.296034 12.9091 0.236175 12.8106 0.195333C12.7121 0.154491 12.6066 0.133468 12.5 0.133468C12.3934 0.133468 12.2878 0.154491 12.1894 0.195333C12.0909 0.236175 12.0015 0.296034 11.9262 0.371485L1.46776 10.8223C1.16307 11.127 0.990417 11.5408 0.990417 11.9725C0.990417 12.8688 1.71913 13.5975 2.61542 13.5975H3.71737V21.0547C3.71737 21.5041 4.08046 21.8672 4.52987 21.8672H10.875V16.1797H13.7187V21.8672H20.4701C20.9195 21.8672 21.2826 21.5041 21.2826 21.0547V13.5975H22.3846C22.8162 13.5975 23.2301 13.4273 23.5348 13.1201C24.167 12.4854 24.167 11.457 23.5322 10.8223Z" fill="white"/>
</svg>
