<svg width="26" height="26" viewBox="0 0 26 26" fill="none" xmlns="http://www.w3.org/2000/svg">
<path d="M24.4204 0.726666L25.1088 1.415C26.0573 2.36467 25.9138 4.04817 24.7856 5.17517L10.5908 19.37L5.99177 21.0523C5.41427 21.2647 4.85194 20.9893 4.73761 20.4398C4.69897 20.2405 4.71716 20.0343 4.79011 19.8448L6.50511 15.2062L20.6603 1.04983C21.7884 -0.0771671 23.4719 -0.221834 24.4204 0.727833V0.726666ZM9.97127 2.13833C10.1245 2.13833 10.2762 2.16851 10.4177 2.22714C10.5593 2.28577 10.6879 2.37171 10.7962 2.48004C10.9046 2.58838 10.9905 2.71699 11.0491 2.85854C11.1078 3.00008 11.1379 3.15179 11.1379 3.305C11.1379 3.45821 11.1078 3.60992 11.0491 3.75146C10.9905 3.89301 10.9046 4.02162 10.7962 4.12996C10.6879 4.23829 10.5593 4.32423 10.4177 4.38286C10.2762 4.44149 10.1245 4.47167 9.97127 4.47167H5.30461C4.68577 4.47167 4.09227 4.7175 3.65469 5.15508C3.21711 5.59267 2.97127 6.18616 2.97127 6.805V20.805C2.97127 21.4238 3.21711 22.0173 3.65469 22.4549C4.09227 22.8925 4.68577 23.1383 5.30461 23.1383H19.3046C19.9234 23.1383 20.5169 22.8925 20.9545 22.4549C21.3921 22.0173 21.6379 21.4238 21.6379 20.805V16.1383C21.6379 15.8289 21.7609 15.5322 21.9796 15.3134C22.1984 15.0946 22.4952 14.9717 22.8046 14.9717C23.114 14.9717 23.4108 15.0946 23.6296 15.3134C23.8484 15.5322 23.9713 15.8289 23.9713 16.1383V20.805C23.9713 22.0427 23.4796 23.2297 22.6044 24.1048C21.7293 24.98 20.5423 25.4717 19.3046 25.4717H5.30461C4.06693 25.4717 2.87994 24.98 2.00477 24.1048C1.1296 23.2297 0.637939 22.0427 0.637939 20.805V6.805C0.637939 5.56732 1.1296 4.38034 2.00477 3.50517C2.87994 2.63 4.06693 2.13833 5.30461 2.13833H9.97127Z" fill="white"/>
</svg>
