<svg width="31" height="58" viewBox="0 0 31 58" fill="none" xmlns="http://www.w3.org/2000/svg">
<path d="M26.4198 1.37826L1.15759 27.2938C0.713895 27.749 0.465576 28.3595 0.465576 28.9951C0.465576 29.6308 0.713895 30.2413 1.15759 30.6965L26.4198 56.6218C26.6265 56.834 26.8736 57.0028 27.1466 57.118C27.4195 57.2332 27.7128 57.2925 28.0091 57.2925C28.3054 57.2925 28.5986 57.2332 28.8716 57.118C29.1445 57.0028 29.3917 56.834 29.5983 56.6218C30.0235 56.1864 30.2616 55.602 30.2616 54.9935C30.2616 54.385 30.0235 53.8006 29.5983 53.3653L5.84246 28.9951L29.5983 4.62988C30.0221 4.19478 30.2592 3.61142 30.2592 3.00407C30.2592 2.39671 30.0221 1.81336 29.5983 1.37826C29.3917 1.16598 29.1445 0.997264 28.8716 0.882061C28.5986 0.766857 28.3054 0.707504 28.0091 0.707504C27.7128 0.707504 27.4195 0.766857 27.1466 0.882061C26.8736 0.997264 26.6265 1.16598 26.4198 1.37826Z" fill="#666666"/>
</svg>
