<svg width="18" height="21" viewBox="0 0 18 21" fill="none" xmlns="http://www.w3.org/2000/svg">
<path d="M8.59502 20.3408C7.04416 19.1236 5.60664 17.7891 4.29751 16.3514C2.33293 14.1923 1.07916e-06 10.9768 1.07916e-06 7.91274C-0.000850931 6.34789 0.50282 4.81798 1.44727 3.51662C2.39172 2.21527 3.7345 1.20097 5.30567 0.602092C6.87683 0.00321633 8.60576 -0.153317 10.2736 0.152302C11.9415 0.457922 13.4734 1.21196 14.6754 2.31898C15.4756 3.05207 16.1099 3.92394 16.5416 4.8841C16.9732 5.84427 17.1936 6.87368 17.19 7.91274C17.19 10.9768 14.8571 14.1923 12.8925 16.3514C11.5834 17.7891 10.1459 19.1236 8.59502 20.3408ZM8.59502 4.52327C7.61807 4.52327 6.68114 4.88037 5.99033 5.51602C5.29953 6.15167 4.91144 7.0138 4.91144 7.91274C4.91144 8.81169 5.29953 9.67381 5.99033 10.3095C6.68114 10.9451 7.61807 11.3022 8.59502 11.3022C9.57197 11.3022 10.5089 10.9451 11.1997 10.3095C11.8905 9.67381 12.2786 8.81169 12.2786 7.91274C12.2786 7.0138 11.8905 6.15167 11.1997 5.51602C10.5089 4.88037 9.57197 4.52327 8.59502 4.52327Z" fill="black"/>
</svg>
