<svg width="37" height="37" viewBox="0 0 37 37" fill="none" xmlns="http://www.w3.org/2000/svg">
<path fill-rule="evenodd" clip-rule="evenodd" d="M18.375 0.00012207C18.7811 0.00012207 19.1706 0.16145 19.4578 0.448615C19.7449 0.73578 19.9062 1.12526 19.9062 1.53137V16.8439H35.2188C35.6249 16.8439 36.0143 17.0052 36.3015 17.2924C36.5887 17.5795 36.75 17.969 36.75 18.3751C36.75 18.7812 36.5887 19.1707 36.3015 19.4579C36.0143 19.745 35.6249 19.9064 35.2188 19.9064H19.9062V35.2189C19.9062 35.625 19.7449 36.0145 19.4578 36.3016C19.1706 36.5888 18.7811 36.7501 18.375 36.7501C17.9689 36.7501 17.5794 36.5888 17.2922 36.3016C17.0051 36.0145 16.8438 35.625 16.8438 35.2189V19.9064H1.53125C1.12514 19.9064 0.735658 19.745 0.448493 19.4579C0.161328 19.1707 0 18.7812 0 18.3751C0 17.969 0.161328 17.5795 0.448493 17.2924C0.735658 17.0052 1.12514 16.8439 1.53125 16.8439H16.8438V1.53137C16.8438 1.12526 17.0051 0.73578 17.2922 0.448615C17.5794 0.16145 17.9689 0.00012207 18.375 0.00012207V0.00012207Z" fill="#1269CD"/>
</svg>
