<svg width="32" height="32" viewBox="0 0 32 32" fill="none" xmlns="http://www.w3.org/2000/svg">
<path fill-rule="evenodd" clip-rule="evenodd" d="M22.9201 20.6375L31.5277 29.2454C31.8303 29.5481 32.0002 29.9587 32 30.3867C31.9999 30.8147 31.8297 31.2252 31.5269 31.5277C31.2242 31.8303 30.8136 32.0002 30.3856 32C29.9576 31.9999 29.5472 31.8297 29.2446 31.5269L20.637 22.9191C18.0639 24.9121 14.8281 25.85 11.5881 25.542C8.34796 25.234 5.34691 23.7031 3.19541 21.2609C1.04391 18.8187 -0.0964196 15.6486 0.00639382 12.3954C0.109207 9.14224 1.44744 6.05044 3.74886 3.74896C6.05029 1.44748 9.14201 0.10921 12.3951 0.00639398C15.6482 -0.096422 18.8182 1.04394 21.2604 3.19549C23.7025 5.34705 25.2333 8.34817 25.5414 11.5883C25.8494 14.8285 24.9115 18.0643 22.9185 20.6375H22.9201ZM12.8006 22.3991C15.3466 22.3991 17.7882 21.3877 19.5885 19.5874C21.3888 17.7871 22.4001 15.3453 22.4001 12.7993C22.4001 10.2533 21.3888 7.81155 19.5885 6.01124C17.7882 4.21093 15.3466 3.19952 12.8006 3.19952C10.2546 3.19952 7.81295 4.21093 6.01269 6.01124C4.21242 7.81155 3.20104 10.2533 3.20104 12.7993C3.20104 15.3453 4.21242 17.7871 6.01269 19.5874C7.81295 21.3877 10.2546 22.3991 12.8006 22.3991Z" fill="#1269CD"/>
</svg>
