<svg width="55" height="55" viewBox="0 0 55 55" fill="none" xmlns="http://www.w3.org/2000/svg">
<path d="M55 27.5C55 34.7935 52.1027 41.7882 46.9454 46.9454C41.7882 52.1027 34.7935 55 27.5 55C20.2065 55 13.2118 52.1027 8.05456 46.9454C2.89731 41.7882 0 34.7935 0 27.5C0 20.2065 2.89731 13.2118 8.05456 8.05456C13.2118 2.89731 20.2065 0 27.5 0C34.7935 0 41.7882 2.89731 46.9454 8.05456C52.1027 13.2118 55 20.2065 55 27.5V27.5ZM18.8925 20.7384H21.7284C22.2028 20.7384 22.5809 20.35 22.6428 19.8791C22.9522 17.6241 24.4991 15.9809 27.2559 15.9809C29.6141 15.9809 31.7728 17.16 31.7728 19.9959C31.7728 22.1787 30.4872 23.1825 28.4556 24.7088C26.1422 26.3897 24.31 28.3525 24.4406 31.5391L24.4509 32.285C24.4545 32.5105 24.5467 32.7256 24.7075 32.8838C24.8682 33.042 25.0848 33.1307 25.3103 33.1306H28.0981C28.326 33.1306 28.5446 33.0401 28.7058 32.8789C28.867 32.7178 28.9575 32.4992 28.9575 32.2712V31.9103C28.9575 29.4422 29.8959 28.7237 32.4294 26.8022C34.5228 25.2106 36.7056 23.4438 36.7056 19.7347C36.7056 14.5406 32.3194 12.0312 27.5172 12.0312C23.1619 12.0312 18.3906 14.0594 18.0641 19.8894C18.0594 20.0004 18.0774 20.1112 18.1171 20.215C18.1568 20.3187 18.2173 20.4133 18.2949 20.4928C18.3725 20.5724 18.4655 20.6352 18.5683 20.6774C18.6711 20.7196 18.7814 20.7404 18.8925 20.7384V20.7384ZM26.8847 42.8862C28.9816 42.8862 30.4219 41.5319 30.4219 39.6997C30.4219 37.8022 28.9781 36.4684 26.8847 36.4684C24.8772 36.4684 23.4162 37.8022 23.4162 39.6997C23.4162 41.5319 24.8772 42.8862 26.8881 42.8862H26.8847Z" fill="#1269CD"/>
</svg>
