<svg width="31" height="58" viewBox="0 0 31 58" fill="none" xmlns="http://www.w3.org/2000/svg">
<path d="M4.58028 1.37826L29.8425 27.2938C30.2862 27.749 30.5345 28.3595 30.5345 28.9951C30.5345 29.6308 30.2862 30.2413 29.8425 30.6965L4.58028 56.6218C4.3736 56.834 4.12649 57.0028 3.85353 57.118C3.58058 57.2332 3.28731 57.2925 2.99103 57.2925C2.69476 57.2925 2.40149 57.2332 2.12853 57.118C1.85557 57.0028 1.60846 56.834 1.40178 56.6218C0.976574 56.1864 0.738525 55.602 0.738525 54.9935C0.738525 54.385 0.976574 53.8006 1.40178 53.3653L25.1577 28.9951L1.40178 4.62988C0.978033 4.19478 0.740906 3.61142 0.740906 3.00407C0.740906 2.39671 0.978033 1.81336 1.40178 1.37826C1.60846 1.16598 1.85557 0.997264 2.12853 0.882061C2.40149 0.766857 2.69476 0.707504 2.99103 0.707504C3.28731 0.707504 3.58058 0.766857 3.85353 0.882061C4.12649 0.997264 4.3736 1.16598 4.58028 1.37826Z" fill="#666666"/>
</svg>
