<svg width="80" height="81" viewBox="0 0 80 81" fill="none" xmlns="http://www.w3.org/2000/svg">
<path d="M65 32.9667C67.6511 32.9634 70.1928 31.9087 72.0674 30.0341C73.9421 28.1594 74.9967 25.6178 75 22.9667V15.4667H67.5C64.9404 15.4705 62.4807 16.4608 60.6325 18.2317C59.3374 15.8817 57.436 13.9219 55.1264 12.5563C52.8167 11.1906 50.1832 10.469 47.5 10.4667H40V17.9667C40.0046 21.9435 41.5865 25.7561 44.3985 28.5682C47.2106 31.3802 51.0232 32.962 55 32.9667H57.5V65.4667H27.5V52.9667H30C32.6511 52.9634 35.1928 51.9087 37.0674 50.0341C38.9421 48.1594 39.9967 45.6178 40 42.9667V35.4667H32.5C29.9404 35.4705 27.4807 36.4608 25.6325 38.2317C24.3374 35.8817 22.436 33.9219 20.1264 32.5563C17.8167 31.1906 15.1832 30.469 12.5 30.4667H5V37.9667C5.00463 41.9435 6.58647 45.7561 9.39851 48.5682C12.2106 51.3802 16.0232 52.962 20 52.9667H22.5V65.4667H5V70.4667H75V65.4667H62.5V32.9667H65ZM62.5 25.4667C62.5013 24.141 63.0285 22.87 63.9659 21.9326C64.9033 20.9952 66.1743 20.468 67.5 20.4667H70V22.9667C69.9987 24.2924 69.4715 25.5634 68.5341 26.5007C67.5967 27.4381 66.3257 27.9654 65 27.9667H62.5V25.4667ZM27.5 45.4667C27.5013 44.141 28.0285 42.87 28.9659 41.9326C29.9033 40.9952 31.1743 40.468 32.5 40.4667H35V42.9667C34.9987 44.2924 34.4715 45.5634 33.5341 46.5007C32.5967 47.4381 31.3257 47.9654 30 47.9667H27.5V45.4667ZM22.5 47.9667H20C17.3489 47.9634 14.8072 46.9087 12.9326 45.0341C11.0579 43.1594 10.0033 40.6178 10 37.9667V35.4667H12.5C15.1511 35.47 17.6928 36.5246 19.5674 38.3993C21.4421 40.2739 22.4967 42.8155 22.5 45.4667V47.9667ZM57.5 27.9667H55C52.3489 27.9634 49.8072 26.9087 47.9326 25.0341C46.0579 23.1594 45.0033 20.6178 45 17.9667V15.4667H47.5C50.1511 15.47 52.6928 16.5246 54.5674 18.3993C56.4421 20.2739 57.4967 22.8155 57.5 25.4667V27.9667Z" fill="#1269CD"/>
</svg>
